# xmcd CD database file
# Copyright (C) 1997 Ti Kan
#
# Track frame offsets:
#  182
#  14107
#  29257
#  42982
#  61657
#  77107
#  89335
#  104255
#  120460
#  136360
#  150910
#  161635
#
# Disc length: 2316 seconds
#
# Revision: 1
# Processed by: cddbd v1.4b41PL1 Copyright (c) Steve Scherf et al.
# Submitted via: CDWizzard Release:4.31
#
DISCID=8f090a0c
DTITLE=John Hammond - So Many Roads
DYEAR=1900
DGENRE=
TTITLE0=Down in the Bottom
TTITLE1=Long Distance Call
TTITLE2=Who Do You Love
TTITLE3=I Want You to Love Me
TTITLE4=Judgement Day
TTITLE5=So Many Roads, So Many Trains
TTITLE6=Rambling Blues
TTITLE7=O Yea !
TTITLE8=You Can't Judge a Book by the Cover
TTITLE9=Gambling Blues
TTITLE10=Baby, Please Don't Go
TTITLE11=Big Boss Man
EXTD=
EXTT0=
EXTT1=
EXTT2=
EXTT3=
EXTT4=
EXTT5=
EXTT6=
EXTT7=
EXTT8=
EXTT9=
EXTT10=
EXTT11=
PLAYORDER=
